<svg width="48" height="48" viewBox="0 0 48 48" fill="none" xmlns="http://www.w3.org/2000/svg">
<path d="M24 0C37.2544 0.000245331 47.999 10.7455 47.999 24C47.9989 37.2544 37.2543 47.9988 24 47.999C22.6481 47.999 21.3222 47.8857 20.0312 47.6709L34.9053 32.7676C36.2236 31.4493 36.3115 30.6931 36.3115 28.8477V22.168C36.3115 20.3047 35.872 19.7246 34.5361 18.3887L30.4932 14.3457C29.1749 13.0274 28.5947 12.5703 26.7314 12.5703H20.0352C18.1895 12.5703 17.4511 12.6583 16.1328 13.9766L0.62207 29.4541C0.214881 27.7019 2.21782e-05 25.8761 0 24C0 10.7453 10.7454 0 24 0ZM23.7793 21.8164C25.1501 21.8167 26.1865 22.8713 26.1865 24.2246C26.1864 25.5602 25.15 26.6326 23.7793 26.6328C22.3907 26.6328 21.3712 25.5604 21.3711 24.2246C21.3711 22.8711 22.3906 21.8164 23.7793 21.8164Z" fill="#FF8E61"/>
</svg>
